<svg width="115" height="40" viewBox="0 0 115 40" fill="none" xmlns="http://www.w3.org/2000/svg">
<path d="M10.068 29.092C9.78 29.54 9.364 30.084 8.82 30.724C8.276 31.364 7.668 32.02 6.996 32.692C6.356 33.396 5.7 34.052 5.028 34.66C4.388 35.3 3.78 35.844 3.204 36.292H0.42V35.716C0.9 35.108 1.412 34.388 1.956 33.556C2.532 32.724 3.092 31.86 3.636 30.964C4.18 30.1 4.628 29.316 4.98 28.612H10.068V29.092ZM25.2 39.796C21.968 39.796 19.488 38.948 17.76 37.252C16.032 35.588 15.168 33.06 15.168 29.668V25.828C15.168 22.436 16.032 19.908 17.76 18.244C19.488 16.548 21.968 15.7 25.2 15.7V18.292C22.736 18.292 20.928 18.9 19.776 20.116C18.624 21.332 18.048 23.236 18.048 25.828V29.668C18.048 32.26 18.624 34.164 19.776 35.38C20.928 36.596 22.736 37.204 25.2 37.204V39.796ZM34.6088 19.828C33.5528 19.828 32.5768 19.588 31.6808 19.108C30.8168 18.596 30.1288 17.908 29.6168 17.044C29.1048 16.18 28.8488 15.22 28.8488 14.164C28.8488 13.076 29.1048 12.1 29.6168 11.236C30.1288 10.372 30.8168 9.7 31.6808 9.22C32.5448 8.708 33.5208 8.452 34.6088 8.452C35.6968 8.452 36.6728 8.708 37.5368 9.22C38.4328 9.7 39.1208 10.372 39.6008 11.236C40.1128 12.1 40.3688 13.076 40.3688 14.164C40.3688 15.252 40.1128 16.228 39.6008 17.092C39.0888 17.956 38.3848 18.628 37.4888 19.108C36.6248 19.588 35.6648 19.828 34.6088 19.828ZM59.2496 0.292C62.4496 0.292 64.8816 0.948 66.5456 2.26C68.2096 3.54 69.0416 5.22 69.0416 7.3C69.0416 8.964 68.6096 10.228 67.7456 11.092C66.8816 11.924 65.6976 12.548 64.1936 12.964V13.156C65.1216 13.284 66.0176 13.572 66.8816 14.02C67.7776 14.468 68.4976 15.108 69.0416 15.94C69.6176 16.772 69.9056 17.844 69.9056 19.156C69.9056 20.564 69.5056 21.876 68.7056 23.092C67.9056 24.276 66.6736 25.22 65.0096 25.924C63.3456 26.628 61.2336 26.98 58.6736 26.98C55.8576 26.98 53.4896 26.436 51.5696 25.348C49.6816 24.26 48.2576 22.724 47.2976 20.74C46.3696 18.756 45.9056 16.404 45.9056 13.684C45.9056 10.9 46.4176 8.516 47.4416 6.532C48.4656 4.516 49.9696 2.98 51.9536 1.924C53.9376 0.835999 56.3696 0.292 59.2496 0.292ZM59.1536 3.844C57.1376 3.844 55.4736 4.212 54.1616 4.948C52.8496 5.684 51.8736 6.788 51.2336 8.26C50.5936 9.7 50.2736 11.508 50.2736 13.684C50.2736 15.892 50.5936 17.732 51.2336 19.204C51.9056 20.644 52.8976 21.716 54.2096 22.42C55.5536 23.124 57.2016 23.476 59.1536 23.476C61.1376 23.476 62.7216 23.108 63.9056 22.372C65.1216 21.604 65.7296 20.452 65.7296 18.916C65.7296 17.508 65.1216 16.516 63.9056 15.94C62.6896 15.332 60.8496 15.028 58.3856 15.028H56.3696V11.572H57.7136C59.9216 11.572 61.6816 11.316 62.9936 10.804C64.3376 10.26 65.0096 9.22 65.0096 7.684C65.0096 6.596 64.5776 5.684 63.7136 4.948C62.8496 4.212 61.3296 3.844 59.1536 3.844ZM80.6869 19.828C79.6309 19.828 78.6549 19.588 77.7589 19.108C76.8949 18.596 76.2069 17.908 75.6949 17.044C75.1829 16.18 74.9269 15.22 74.9269 14.164C74.9269 13.076 75.1829 12.1 75.6949 11.236C76.2069 10.372 76.8949 9.7 77.7589 9.22C78.6229 8.708 79.5989 8.452 80.6869 8.452C81.7749 8.452 82.7509 8.708 83.6149 9.22C84.5109 9.7 85.1989 10.372 85.6789 11.236C86.1909 12.1 86.4469 13.076 86.4469 14.164C86.4469 15.252 86.1909 16.228 85.6789 17.092C85.1669 17.956 84.4629 18.628 83.5669 19.108C82.7029 19.588 81.7429 19.828 80.6869 19.828ZM90.1118 39.796V37.204C92.5758 37.204 94.3838 36.596 95.5358 35.38C96.6878 34.164 97.2638 32.26 97.2638 29.668V25.828C97.2638 23.236 96.6878 21.332 95.5358 20.116C94.3838 18.9 92.5758 18.292 90.1118 18.292V15.7C93.3438 15.7 95.8238 16.548 97.5518 18.244C99.2798 19.908 100.144 22.436 100.144 25.828V29.668C100.144 33.06 99.2798 35.588 97.5518 37.252C95.8238 38.948 93.3438 39.796 90.1118 39.796ZM110.273 28.612C110.625 29.316 111.057 30.1 111.569 30.964C112.113 31.86 112.673 32.724 113.249 33.556C113.857 34.388 114.401 35.108 114.881 35.716V36.292H112.049C111.505 35.844 110.897 35.3 110.225 34.66C109.553 34.052 108.881 33.396 108.209 32.692C107.569 32.02 106.977 31.364 106.433 30.724C105.921 30.084 105.521 29.54 105.233 29.092V28.612H110.273Z" fill="white"/>
</svg>
